HIERARCHY
ROOT Hips
{
	OFFSET 0.000000 0.000000 0.000000
	CHANNELS 6 Xposition Yposition Zposition Zrotation Yrotation Xrotation 
	JOINT LHipJoint
	{
		OFFSET 0.000000 0.000000 0.000000
		CHANNELS 3 Zrotation Yrotation Xrotation
		JOINT LeftUpLeg
		{
			OFFSET 1.363060 -1.794630 0.839290
			CHANNELS 3 Zrotation Yrotation Xrotation
			JOINT LeftLeg
			{
				OFFSET 2.448110 -6.726130 0.000000
				CHANNELS 3 Zrotation Yrotation Xrotation
				JOINT LeftFoot
				{
					OFFSET 2.562200 -7.039590 0.000000
					CHANNELS 3 Zrotation Yrotation Xrotation
					JOINT LeftToeBase
					{
						OFFSET 0.157640 -0.433110 2.322550
						CHANNELS 3 Zrotation Yrotation Xrotation
						End Site
						{
							OFFSET 0.000000 0.000000 0.000000
						}
					}
				}
			}
		}
	}
	JOINT RHipJoint
	{
		OFFSET 0.000000 0.000000 0.000000
		CHANNELS 3 Zrotation Yrotation Xrotation
		JOINT RightUpLeg
		{
			OFFSET -1.305520 -1.794630 0.839290
			CHANNELS 3 Zrotation Yrotation Xrotation
			JOINT RightLeg
			{
				OFFSET -2.542530 -6.985550 0.000000
				CHANNELS 3 Zrotation Yrotation Xrotation
				JOINT RightFoot
				{
					OFFSET -2.568260 -7.056230 0.000000
					CHANNELS 3 Zrotation Yrotation Xrotation
					JOINT RightToeBase
					{
						OFFSET -0.164730 -0.452590 2.363150
						CHANNELS 3 Zrotation Yrotation Xrotation
						End Site
						{
							OFFSET 0.000000 0.000000 0.000000
						}
					}
				}
			}
		}
	}
	JOINT LowerBack
	{
		OFFSET 0.000000 0.000000 0.000000
		CHANNELS 3 Zrotation Yrotation Xrotation
		JOINT Spine
		{
			OFFSET 0.028270 2.035590 -0.193380
			CHANNELS 3 Zrotation Yrotation Xrotation
			JOINT Spine1
			{
				OFFSET 0.056720 2.048850 -0.042750
				CHANNELS 3 Zrotation Yrotation Xrotation
				JOINT Neck
				{
					OFFSET 0.000000 0.000000 0.000000
					CHANNELS 3 Zrotation Yrotation Xrotation
					JOINT Neck1
					{
						OFFSET -0.054170 1.746240 0.172020
						CHANNELS 3 Zrotation Yrotation Xrotation
						JOINT Head
						{
							OFFSET 0.104070 1.761360 -0.123970
							CHANNELS 3 Zrotation Yrotation Xrotation
							End Site
							{
								OFFSET 0.000000 0.000000 0.000000
							}
						}
					}
				}
				JOINT LeftShoulder
				{
					OFFSET 0.000000 0.000000 0.000000
					CHANNELS 3 Zrotation Yrotation Xrotation
					JOINT LeftArm
					{
						OFFSET 3.362410 1.200890 -0.311210
						CHANNELS 3 Zrotation Yrotation Xrotation
						JOINT LeftForeArm
						{
							OFFSET 4.983000 -0.000000 -0.000000
							CHANNELS 3 Zrotation Yrotation Xrotation
							JOINT LeftHand
							{
								OFFSET 3.483560 -0.000000 -0.000000
								CHANNELS 3 Zrotation Yrotation Xrotation
								JOINT LeftFingerBase
								{
									OFFSET 0.000000 0.000000 0.000000
									CHANNELS 3 Zrotation Yrotation Xrotation
									JOINT LeftHandIndex1
									{
										OFFSET 0.715260 -0.000000 -0.000000
										CHANNELS 3 Zrotation Yrotation Xrotation
										End Site
										{
											OFFSET 0.000000 0.000000 0.000000
										}
									}
								}
								JOINT LThumb
								{
									OFFSET 0.000000 0.000000 0.000000
									CHANNELS 3 Zrotation Yrotation Xrotation
									End Site
									{
										OFFSET 0.000000 0.000000 0.000000
									}
								}
							}
						}
					}
				}
				JOINT RightShoulder
				{
					OFFSET 0.000000 0.000000 0.000000
					CHANNELS 3 Zrotation Yrotation Xrotation
					JOINT RightArm
					{
						OFFSET -3.136600 1.374050 -0.404650
						CHANNELS 3 Zrotation Yrotation Xrotation
						JOINT RightForeArm
						{
							OFFSET -5.241900 -0.000000 -0.000000
							CHANNELS 3 Zrotation Yrotation Xrotation
							JOINT RightHand
							{
								OFFSET -3.444170 -0.000000 -0.000000
								CHANNELS 3 Zrotation Yrotation Xrotation
								JOINT RightFingerBase
								{
									OFFSET 0.000000 0.000000 0.000000
									CHANNELS 3 Zrotation Yrotation Xrotation
									JOINT RightHandIndex1
									{
										OFFSET -0.622530 -0.000000 -0.000000
										CHANNELS 3 Zrotation Yrotation Xrotation
										End Site
										{
											OFFSET 0.000000 0.000000 0.000000
										}
									}
								}
								JOINT RThumb
								{
									OFFSET 0.000000 0.000000 0.000000
									CHANNELS 3 Zrotation Yrotation Xrotation
									End Site
									{
										OFFSET 0.000000 0.000000 0.000000
									}
								}
							}
						}
					}
				}
			}
		}
	}
}
MOTION
Frames: 10
Frame Time: 0.008333
-16.025171 16.920799 1.273842 -21.873322 15.917235 164.903738 -2.798731 -2.978576 -2.519676 -5.102613 33.227930 -113.436740 31.285244 13.095176 127.937723 13.157508 4.597269 69.635974 8.313000 16.344700 53.682500 2.907181 1.260091 0.447519 -11.791184 -6.514837 -11.438685 0.199201 -1.069606 2.556309 2.723347 -10.405983 0.679563 -10.802400 -17.837000 62.138200 0.136629 2.152167 11.810660 -1.793374 2.726623 -2.531150 -9.668139 1.497444 -2.180796 5.784169 9.948386 -8.911298 16.615505 9.863421 15.404116 4.684600 5.235000 3.752000 -2.572827 -9.651104 5.627493 28.852585 -17.106659 -84.741671 41.466032 -42.341255 -34.187156 0.503473 -0.713787 13.634031 90.457179 -38.927218 -89.649400 -7.125000 0.000000 0.000000 31.240900 -54.364100 -44.724700 3.132342 10.809052 3.850352 -45.528538 9.883481 -63.251297 -25.717620 38.413147 -15.422435 5.091375 10.980123 -25.215931 -71.396832 -35.211983 75.356900 7.125000 0.000000 0.000000 -130.035100 68.119700 -149.476600 
-15.995572 16.933150 1.234674 -21.544219 15.332062 164.371845 -2.828002 -2.994908 -2.564734 -5.043885 31.437034 -114.217505 30.818278 13.401956 127.576763 12.427884 -6.831898 67.462655 7.373200 15.638200 50.271900 3.174533 1.306994 0.480441 -10.885824 -6.979094 -11.467031 0.337128 -1.151276 2.467406 5.079585 -14.709260 -0.337834 -10.239200 -17.542200 60.284800 0.322197 2.045684 12.562397 -1.720030 2.581836 -2.444077 -9.654844 1.422093 -2.241733 5.669526 9.911215 -8.801079 16.503947 10.029161 14.591362 4.618700 5.283200 3.411400 -2.542082 -9.659211 5.667676 28.977461 -17.151516 -84.860262 41.382080 -42.346416 -34.099861 0.486537 -0.691056 13.335331 90.269190 -38.865543 -89.377800 -7.125000 0.000000 0.000000 31.130300 -54.161100 -44.604600 3.101853 10.783003 3.864466 -45.552661 9.637473 -63.591000 -25.582788 38.276028 -15.310592 5.142303 10.934195 -25.069351 -70.765184 -34.849196 74.292200 7.125000 0.000000 0.000000 -128.068900 68.634600 -147.485700 
-15.965529 16.955405 1.191834 -21.199850 14.769715 163.823323 -2.839316 -3.008670 -2.633554 -4.938420 29.591954 -115.190253 30.267951 13.730874 127.211882 10.969403 -16.888139 63.122275 6.042400 14.469300 45.151700 3.452341 1.324750 0.537628 -9.948199 -7.486809 -11.368806 0.452246 -1.250311 2.351196 7.291651 -18.973030 -0.961416 -9.477900 -17.105600 57.728500 0.484725 1.960403 13.301306 -1.640483 2.463315 -2.362938 -9.608787 1.359486 -2.321168 5.513631 9.839830 -8.643711 16.308631 10.202919 13.597308 4.517500 5.327100 2.995300 -2.504291 -9.674724 5.711066 29.124525 -17.203276 -84.958296 41.240964 -42.334061 -33.952439 0.459736 -0.657570 13.039305 89.985493 -38.684405 -88.963900 -7.125000 0.000000 0.000000 31.040400 -53.819800 -44.545400 3.068334 10.760261 3.878884 -45.574726 9.403033 -63.947887 -25.395485 38.106151 -15.159422 5.199086 10.894221 -24.896135 -70.121787 -34.493672 73.213200 7.125000 0.000000 0.000000 -126.015400 69.136100 -145.388900 
-15.936710 16.984447 1.145879 -20.864641 14.238613 163.265741 -2.819957 -3.033910 -2.720801 -4.834274 27.733316 -116.394742 29.773245 13.987647 126.871956 9.008368 -24.811609 56.251358 4.105200 12.299000 36.798200 3.721632 1.321520 0.618465 -9.015366 -8.016421 -11.148993 0.534303 -1.359896 2.230920 9.017646 -22.582994 -0.974683 -8.594800 -16.539700 54.677800 0.587323 1.896900 14.007668 -1.554165 2.366219 -2.290427 -9.489133 1.307797 -2.420993 5.261635 9.732802 -8.468183 16.037924 10.383118 12.423413 4.398300 5.366300 2.506200 -2.462634 -9.702573 5.755538 29.262633 -17.238489 -85.003741 41.031314 -42.288906 -33.739837 0.423626 -0.613931 12.739379 89.646834 -38.422833 -88.470600 -7.125000 0.000000 0.000000 30.971500 -53.396700 -44.533800 3.031116 10.739661 3.892114 -45.624278 9.205575 -64.342390 -25.151271 37.914025 -14.962557 5.259436 10.853040 -24.678926 -69.465323 -34.159636 72.112100 7.125000 0.000000 0.000000 -123.889500 69.630300 -143.188800 
-15.909670 17.020276 1.095807 -20.532764 13.743151 162.712063 -2.771803 -3.086019 -2.804498 -4.628001 25.940859 -117.706821 29.510690 14.066968 126.510370 7.202369 -29.477375 47.090025 1.765200 8.358800 23.809200 3.966740 1.319991 0.729175 -8.117584 -8.529714 -10.796411 0.592423 -1.460564 2.150685 9.973431 -24.836058 -0.445115 -7.888200 -16.036400 52.158900 0.669356 1.838044 14.694044 -1.471852 2.271961 -2.240012 -9.372828 1.254165 -2.596663 5.039980 9.585748 -8.213752 15.368571 10.604628 10.896720 4.604500 5.389300 2.063100 -2.416337 -9.735530 5.795790 29.386573 -17.244210 -84.899736 40.770419 -42.222393 -33.471249 0.383216 -0.564353 12.401507 89.323619 -38.139878 -88.006600 -7.125000 0.000000 0.000000 30.929800 -52.987800 -44.557900 2.997099 10.743357 3.911191 -45.662747 9.066094 -64.755644 -24.835797 37.682407 -14.718492 5.325002 10.821078 -24.417900 -68.755133 -33.851477 70.942200 7.125000 0.000000 0.000000 -121.642100 70.140800 -140.817100 
-15.885413 17.060891 1.041172 -20.177386 13.274215 162.171624 -2.727176 -3.165437 -2.864347 -4.328291 24.213512 -119.113658 29.426884 14.026200 126.061753 6.430994 -30.861413 37.034815 0.056900 1.539700 4.235200 4.174319 1.338577 0.872558 -7.274940 -8.991998 -10.294806 0.646509 -1.533029 2.148540 10.071406 -25.328039 0.226606 -7.701700 -15.895400 51.480900 0.763636 1.793878 15.341424 -1.396048 2.197779 -2.207791 -9.263275 1.212258 -2.825542 4.592520 9.409754 -8.009078 15.115411 10.759746 9.420816 4.479500 5.407700 1.379400 -2.383192 -9.801892 5.830513 29.496647 -17.248506 -84.620673 40.496609 -42.152149 -33.178521 0.342314 -0.511943 12.003812 89.059326 -37.849403 -87.639000 -7.125000 0.000000 0.000000 30.939600 -52.644200 -44.644800 2.951209 10.741227 3.925879 -45.666025 8.970107 -65.147338 -24.461388 37.408995 -14.440082 5.398112 10.806511 -24.116373 -68.035212 -33.585656 69.790700 7.125000 0.000000 0.000000 -119.434800 70.628500 -138.447100 
-15.865050 17.103174 0.982643 -19.778088 12.827470 161.643571 -2.697877 -3.259826 -2.900034 -4.033986 22.530425 -120.652157 29.426527 13.979254 125.456279 6.756757 -29.435242 27.772609 1.090700 -6.637000 -18.644200 4.337256 1.381913 1.042700 -6.500162 -9.390327 -9.653812 0.702288 -1.567703 2.228733 9.342931 -24.009577 0.871442 -8.170500 -16.243200 53.174600 0.893407 1.760859 15.943666 -1.324995 2.146743 -2.192082 -9.182030 1.179311 -3.104671 4.081902 9.191000 -7.768793 14.877776 10.886739 7.761010 4.380100 5.399600 0.621300 -2.356287 -9.887732 5.860124 29.592369 -17.272620 -84.155543 40.223791 -42.090439 -32.876357 0.303781 -0.459011 11.532765 88.905867 -37.594129 -87.454600 -7.125000 0.000000 0.000000 31.012500 -52.441600 -44.798000 2.902616 10.747268 3.941698 -45.628342 8.908636 -65.512213 -24.024067 37.087459 -14.125147 5.480477 10.814627 -23.791784 -67.339645 -33.361561 68.720600 7.125000 0.000000 0.000000 -117.370600 71.068500 -136.202300 
-15.849027 17.149797 0.918550 -19.320963 12.385643 161.103831 -2.669885 -3.355110 -2.927361 -3.696838 20.858271 -122.224964 29.448769 13.994873 124.630456 7.359311 -25.858577 20.561560 4.158500 -12.368400 -37.048000 4.454510 1.431432 1.230408 -5.808097 -9.753664 -8.898090 0.746479 -1.571591 2.360610 7.944425 -21.267363 1.656551 -9.050000 -16.839800 56.263000 1.076907 1.732239 16.527309 -1.255775 2.113744 -2.187933 -9.135541 1.153471 -3.420700 3.542851 8.924431 -7.522875 14.649363 10.962439 5.957544 4.307700 5.357200 -0.186900 -2.332395 -9.987102 5.884137 29.680098 -17.320496 -83.529578 39.947434 -42.036980 -32.562120 0.267536 -0.405736 10.985702 88.876879 -37.402968 -87.481100 -7.125000 0.000000 0.000000 31.139800 -52.410900 -44.998900 2.850669 10.762434 3.957982 -45.557407 8.863963 -65.855988 -23.527570 36.715724 -13.773316 5.568497 10.844418 -23.473743 -66.631422 -33.151888 67.667200 7.125000 0.000000 0.000000 -115.305600 71.486100 -133.940000 
-15.837010 17.197533 0.850118 -18.832183 11.946835 160.523562 -2.620901 -3.434520 -2.980178 -3.456208 19.215179 -123.796324 29.168610 14.219247 123.392003 7.287619 -22.653404 20.112830 5.119100 -13.516700 -41.334900 4.527657 1.463460 1.424126 -5.225910 -10.102527 -8.067927 0.763736 -1.556512 2.496074 6.149859 -17.786166 2.837328 -9.953500 -17.383600 59.332900 1.279150 1.706607 17.103482 -1.184109 2.094017 -2.185972 -9.094321 1.132655 -3.726509 3.118933 8.593903 -7.386890 14.303538 10.925314 4.140056 4.189900 5.267100 -0.950200 -2.302122 -10.079706 5.899494 29.763033 -17.379317 -82.808883 39.647044 -41.978687 -32.224562 0.231140 -0.350729 10.375889 88.961645 -37.288975 -87.707100 -7.125000 0.000000 0.000000 31.307000 -52.548500 -45.225200 2.801748 10.794127 3.973828 -45.477867 8.822774 -66.199337 -22.999289 36.314223 -13.400024 5.669426 10.877316 -23.160843 -65.996801 -32.917621 66.732900 7.125000 0.000000 0.000000 -113.290400 71.821300 -131.778300 
-15.828108 17.244823 0.778125 -18.322732 11.504010 159.888901 -2.547636 -3.503399 -3.049677 -3.263963 17.664082 -125.263466 28.786090 14.492163 121.870098 7.008513 -19.823235 20.772098 5.659300 -14.089900 -43.598700 4.563169 1.468678 1.605582 -4.764023 -10.464509 -7.192109 0.754026 -1.531825 2.597587 4.361635 -14.405712 4.418311 -10.652300 -17.760700 61.647100 1.476158 1.674221 17.676161 -1.105601 2.070137 -2.175711 -9.010017 1.111361 -3.984370 2.810612 8.211005 -7.426112 13.815253 10.776044 2.366213 4.016600 5.135600 -1.635800 -2.261174 -10.157918 5.908088 29.834226 -17.411567 -82.060885 39.294653 -41.893625 -31.846270 0.191311 -0.292302 9.719471 89.136616 -37.268315 -88.097400 -7.125000 0.000000 0.000000 31.484600 -52.835300 -45.434500 2.756161 10.838753 3.987411 -45.440280 8.794210 -66.600498 -22.444550 35.904237 -13.004991 5.810606 10.879173 -22.824228 -65.657281 -32.581100 66.201000 7.125000 0.000000 0.000000 -111.568300 71.920200 -130.122500 
